<?xml version="1.0" encoding="UTF-8" standalone="no"?>
<!DOCTYPE svg PUBLIC "-//W3C//DTD SVG 1.1//EN" "http://www.w3.org/Graphics/SVG/1.1/DTD/svg11.dtd">
<svg width="100%" height="100%" viewBox="0 0 239 239" version="1.1" xmlns="http://www.w3.org/2000/svg" xmlns:xlink="http://www.w3.org/1999/xlink" xml:space="preserve" xmlns:serif="http://www.serif.com/" style="fill-rule:evenodd;clip-rule:evenodd;stroke-linejoin:round;stroke-miterlimit:1.41421;">
    <g id="DeckDeckGo" transform="matrix(1,0,0,1,9.9915,4.35207e-14)">
        <g transform="matrix(0.916179,0,0,0.916179,121.608,193.471)">
            <path d="M0,-162.41C-2.103,-161.421 -3.307,-159.719 -4.341,-157.933C-5.011,-156.776 -5.411,-155.456 -5.875,-154.189C-6.392,-152.782 -6.349,-152.83 -7.658,-153.375C-11.742,-155.072 -15.374,-157.491 -18.819,-160.223C-18.997,-160.364 -19.226,-160.44 -19.597,-160.632C-21.062,-158.202 -21.495,-155.582 -21.201,-152.878C-20.943,-150.499 -20.312,-148.189 -19.179,-146.032C-18.147,-144.07 -18.333,-143.422 -20.064,-142.243C-30.323,-135.262 -35.973,-125.493 -37.615,-113.286C-38.083,-109.806 -38.488,-106.319 -38.538,-102.808C-38.68,-92.752 -36.387,-83.35 -30.965,-74.779C-29.514,-72.485 -28.108,-70.163 -26.544,-67.942C-25.853,-66.96 -25.247,-65.93 -24.806,-64.806C-23.883,-62.46 -24.159,-61.562 -26.322,-59.963C-26.974,-60.168 -26.973,-60.783 -27.142,-61.289C-30.073,-70.09 -35.542,-76.998 -42.958,-82.441C-43.663,-82.957 -44.446,-83.382 -45.234,-83.764C-56.989,-89.472 -64.994,-98.704 -70.333,-110.442C-70.956,-111.809 -71.519,-113.203 -72.16,-114.702C-73.745,-113.87 -74.577,-112.464 -75.564,-111.285C-84.836,-100.218 -90.675,-87.564 -92.266,-73.186C-94.346,-54.394 -89.569,-37.358 -78.215,-22.228C-69.562,-10.698 -58.382,-2.404 -45.153,3.211C-42.355,4.399 -39.476,5.348 -36.616,6.27C-36.577,6.392 -36.543,6.464 -36.534,6.54C-36.525,6.614 -36.512,6.723 -36.553,6.762C-43.294,13.239 -50.464,19.24 -57.412,25.487C-66.131,33.327 -74.96,41.042 -83.877,48.93C-83.263,48.387 -84.296,47.069 -84.297,46.256C-84.313,33.056 -84.339,19.857 -84.276,6.657C-84.267,4.683 -84.618,3.238 -86.404,2.011C-90.09,-0.52 -93.309,-3.661 -96.557,-6.722C-99.801,-9.779 -102.749,-13.14 -105.563,-16.606C-109.086,-20.945 -112.292,-25.489 -115.233,-30.259C-117.583,-34.07 -119.571,-38.046 -121.634,-41.993C-123.227,-45.04 -124.291,-48.307 -125.511,-51.512C-127.788,-57.493 -129.5,-63.625 -130.548,-69.927C-131.685,-76.758 -132.883,-83.606 -132.719,-90.562C-132.608,-95.247 -132.652,-99.92 -131.962,-104.623C-131.083,-110.611 -130.325,-116.616 -128.757,-122.456C-125.852,-133.279 -121.598,-143.554 -115.787,-153.177C-113.392,-157.142 -110.844,-161.012 -108.014,-164.645C-104.837,-168.722 -101.496,-172.702 -97.723,-176.276C-94.65,-179.186 -91.583,-182.092 -88.284,-184.76C-84.681,-187.673 -80.905,-190.326 -77.028,-192.845C-72.067,-196.068 -66.749,-198.627 -61.425,-201.171C-58.034,-202.791 -54.428,-203.834 -50.919,-205.139C-44.541,-207.509 -37.89,-208.768 -31.202,-209.833C-26.734,-210.545 -22.228,-210.805 -17.708,-211.078C-13.38,-211.34 -9.1,-210.982 -4.811,-210.876C-1.102,-210.785 2.609,-210.098 6.282,-209.46C9.804,-208.848 13.313,-208.16 16.791,-207.268C22.14,-205.897 27.308,-204.024 32.377,-201.93C37.52,-199.806 42.515,-197.33 47.296,-194.417C51.597,-191.797 55.781,-189.015 59.729,-185.915C63.04,-183.313 66.229,-180.547 69.249,-177.58C75.018,-171.913 80.21,-165.803 84.772,-159.114C87.974,-154.422 90.885,-149.569 93.386,-144.496C97.234,-136.692 100.043,-128.505 102.173,-120.047C103.5,-114.777 104.144,-109.446 104.87,-104.096C105.855,-96.848 105.604,-89.576 105.202,-82.344C104.899,-76.909 104.145,-71.404 102.759,-66.15C100.96,-59.332 99.151,-52.489 96.203,-45.983C93.894,-40.889 91.463,-35.887 88.616,-31.088C85.153,-25.249 81.195,-19.76 76.765,-14.607C72.227,-9.33 67.302,-4.461 61.895,-0.077C52.988,7.143 43.318,13.074 32.758,17.593C27.685,19.765 22.439,21.344 17.18,22.932C12.301,24.405 7.292,25.234 2.283,26.071C1.736,26.162 1.163,26.095 0.612,26.174C-0.674,26.36 -1.17,25.839 -1.386,24.543C-1.577,23.401 -1.241,22.865 -0.251,22.58C3.755,21.426 7.552,19.719 11.347,18.044C21.977,13.35 32.229,7.959 41.047,0.263C50.085,-7.625 56.418,-17.192 58.465,-29.252C59.269,-33.986 58.974,-38.625 57.487,-43.2C56.471,-46.326 55.165,-49.321 53.659,-52.236C53.219,-53.088 52.809,-53.957 52.347,-54.797C49.878,-59.284 50.097,-63.502 52.96,-67.871C55.582,-71.87 57.971,-76.049 60.063,-80.37C61.183,-82.682 62.111,-85.063 62.103,-87.688C62.095,-89.952 61.598,-90.52 59.378,-90.781C55.926,-91.186 52.74,-90.438 49.745,-88.648C46.105,-86.471 42.634,-84.046 39.167,-81.617C31.861,-76.498 23.682,-73.686 14.898,-72.804C9.324,-72.244 3.727,-72.766 -1.716,-74.296C-3.176,-74.706 -4.593,-75.247 -5.838,-76.169C-8.171,-77.895 -8.972,-80.41 -8.05,-83.157C-7.413,-85.054 -6.175,-86.466 -4.599,-87.639C-2.381,-89.291 0.128,-90.283 2.767,-91.009C5.541,-91.772 8.245,-92.743 10.956,-93.704C16.316,-95.608 20.563,-99.008 24.179,-103.294C25.826,-105.246 27.459,-107.211 29.084,-109.182C30.266,-110.614 31.677,-111.802 33.2,-112.824C38.153,-116.145 44.896,-115.732 49.741,-111.837C50.984,-110.838 52.193,-109.783 53.32,-108.656C54.285,-107.691 55.316,-107.406 56.576,-107.862C58.467,-108.546 60.433,-108.883 62.422,-109.051C63.58,-109.149 63.657,-109.658 63.395,-110.647C61.924,-116.187 59.42,-121.247 56.343,-126.042C53.658,-130.226 50.785,-134.339 46.98,-137.529C41.283,-142.306 35.863,-147.594 28.461,-149.862C26.707,-150.399 24.978,-150.974 23.116,-150.965C22.64,-150.963 22.15,-150.967 21.687,-151.065C19.254,-151.585 19.146,-151.774 19.681,-154.295C20.054,-156.052 19.615,-156.468 17.81,-155.911C15.756,-155.279 13.893,-154.34 12.066,-153.107C7.63,-150.11 8.601,-150.24 5.162,-153.827C3.999,-155.039 3.048,-156.434 2.267,-157.928C1.526,-159.341 0.825,-160.774 0,-162.41" style="fill:white;fill-rule:nonzero;"/>
        </g>
        <g transform="matrix(0.916179,0,0,0.916179,-1.36954e-16,-1.22972e-15)">
            <path d="M150.421,94.145C150.078,99.477 147.313,102.468 143.019,102.152C138.83,101.843 135.977,98.319 136.279,93.83C136.56,89.683 139.954,86.471 143.778,86.736C147.3,86.98 150.642,90.708 150.421,94.145ZM147.516,94.316C147.693,98.221 144.719,100.314 141.35,98.667C140.468,98.236 139.95,97.576 139.56,96.604C138.872,94.889 139.147,93.322 139.851,91.79C140.58,90.204 142.258,89.337 143.705,89.606C145.541,89.948 147.192,91.493 147.443,93.132C147.503,93.521 147.494,93.921 147.516,94.316Z" style="fill:white;"/>
        </g>
        <g transform="matrix(0.916179,0,0,0.916179,-1.36954e-16,-1.22972e-15)">
            <path d="M184.138,95.875C181.005,95.885 178.599,93.273 178.565,89.963C178.53,86.563 181.689,84.349 183.709,84.385C186.571,84.436 189.624,87.724 189.566,90.607C189.507,93.453 187.021,95.866 184.138,95.875ZM184.137,92.851C182.541,92.86 181.561,91.86 181.506,90.167C181.453,88.539 182.2,87.612 183.588,87.581C185.096,87.549 186.714,89.128 186.668,90.588C186.628,91.86 185.53,92.843 184.137,92.851Z" style="fill:white;"/>
        </g>
    </g>
</svg>
