<?xml version="1.0" standalone="no"?>
<!DOCTYPE svg PUBLIC "-//W3C//DTD SVG 20010904//EN"
 "http://www.w3.org/TR/2001/REC-SVG-20010904/DTD/svg10.dtd">
<svg version="1.0" xmlns="http://www.w3.org/2000/svg"
 width="1080.000000pt" height="1080.000000pt" viewBox="0 0 1080.000000 1080.000000"
 preserveAspectRatio="xMidYMid meet">
<metadata>
Created by potrace 1.11, written by Peter Selinger 2001-2013
</metadata>
<g transform="translate(0.000000,1080.000000) scale(0.100000,-0.100000)"
fill="#000000" stroke="none">
<path d="M5189 10796 c-2 -2 -53 -7 -114 -11 -112 -6 -258 -20 -330 -30 -22
-3 -56 -8 -75 -11 -53 -7 -263 -44 -280 -49 -8 -2 -31 -7 -50 -10 -19 -3 -71
-15 -115 -26 -44 -11 -87 -22 -95 -24 -46 -10 -108 -27 -125 -35 -11 -5 -58
-21 -105 -35 -107 -34 -349 -120 -415 -149 -98 -42 -470 -228 -487 -243 -10
-9 -18 -13 -18 -9 0 4 -25 -9 -55 -29 -31 -19 -58 -35 -60 -35 -12 0 -318
-209 -430 -293 -205 -154 -349 -282 -580 -512 -160 -161 -162 -162 -312 -349
-490 -608 -854 -1389 -987 -2116 -14 -74 -27 -155 -30 -180 -3 -25 -8 -54 -10
-65 -2 -11 -7 -45 -12 -75 -4 -30 -8 -57 -9 -60 -1 -3 -5 -32 -9 -65 -4 -33
-9 -73 -11 -90 -23 -177 -24 -765 -1 -892 4 -20 17 -120 21 -168 2 -16 8 -57
14 -90 5 -33 19 -114 30 -180 12 -66 28 -151 37 -190 8 -38 17 -79 19 -90 11
-46 15 -64 39 -150 14 -49 32 -109 40 -133 8 -23 15 -45 15 -48 -1 -2 4 -17 9
-32 6 -15 36 -97 67 -182 68 -187 123 -317 181 -427 105 -198 133 -250 152
-283 12 -19 39 -66 60 -105 36 -63 213 -334 241 -367 6 -7 52 -67 103 -133
227 -297 537 -617 778 -803 125 -96 159 -131 172 -177 8 -29 12 -282 12 -900
1 -473 5 -866 9 -872 5 -7 10 -23 12 -34 3 -12 6 -23 7 -25 2 -1 21 14 44 34
22 20 69 62 104 92 34 30 68 60 74 65 6 6 105 94 221 195 115 102 217 192 225
200 9 8 46 42 84 75 37 33 78 69 90 80 35 32 163 145 188 167 13 11 52 45 88
77 36 32 94 83 129 114 35 32 69 57 75 57 6 0 52 -13 102 -30 50 -16 117 -37
150 -45 103 -29 208 -55 239 -60 17 -3 46 -10 65 -15 37 -10 42 -11 185 -36
97 -17 123 -21 200 -29 28 -3 61 -7 75 -10 186 -33 871 -39 1025 -9 11 2 63 6
115 9 52 3 106 8 120 10 30 4 195 33 230 40 14 3 39 8 55 11 17 3 50 10 75 15
25 6 52 12 60 14 8 2 42 11 75 20 33 9 67 18 76 20 28 6 339 105 424 135 82
29 188 70 285 111 88 37 345 167 438 220 47 27 86 49 88 49 4 0 148 91 249
158 159 105 405 295 560 432 66 59 337 332 400 405 375 429 674 918 900 1470
109 268 243 742 286 1015 6 41 13 82 14 90 3 18 13 115 20 190 25 314 25 716
0 945 -9 76 -16 130 -20 160 -3 17 -7 48 -10 70 -32 232 -74 451 -105 554 -11
34 -22 73 -24 85 -13 68 -92 302 -180 540 -54 144 -185 418 -257 539 -16 26
-29 49 -29 51 0 10 -138 229 -208 331 -63 92 -209 288 -247 332 -5 7 -15 18
-20 25 -102 131 -409 453 -546 573 -64 57 -214 180 -254 210 -22 16 -42 32
-45 35 -3 3 -21 17 -40 30 -19 13 -37 27 -40 30 -8 11 -289 193 -395 257 -373
223 -868 428 -1275 527 -283 68 -608 125 -815 142 -75 6 -621 14 -626 10z"/>
</g>
</svg>
